<svg width="11" height="7" viewBox="0 0 11 7" fill="none" xmlns="http://www.w3.org/2000/svg">
<path d="M5.99784 6.49994L5.99705 6.49995C5.93125 6.50033 5.86602 6.48772 5.8051 6.46283C5.74443 6.43806 5.68923 6.4016 5.64264 6.35553C5.64244 6.35534 5.64225 6.35514 5.64205 6.35495L1.64349 2.35639C1.54896 2.26185 1.49585 2.13363 1.49585 1.99994C1.49585 1.86625 1.54896 1.73803 1.64349 1.64349C1.73803 1.54896 1.86625 1.49585 1.99994 1.49585C2.13353 1.49585 2.26166 1.54888 2.35617 1.64328C2.35624 1.64335 2.35632 1.64342 2.35639 1.64349L5.64585 4.94296L5.9994 5.29758L6.35349 4.94349L9.62749 1.6695C9.72127 1.59425 9.8392 1.5552 9.95969 1.55986C10.0855 1.56472 10.2049 1.61688 10.294 1.70593C10.383 1.79498 10.4352 1.91435 10.44 2.04019C10.4447 2.16068 10.4056 2.27861 10.3304 2.37239L6.34784 6.35495C6.34764 6.35514 6.34745 6.35533 6.34725 6.35553C6.25418 6.44754 6.12873 6.49939 5.99784 6.49994Z" fill="#A098AE" stroke="#A098AE"/>
</svg>
